<svg xmlns="http://www.w3.org/2000/svg" viewBox="0 0 32 32" width="32" height="32">
  <path d="M7 3.5h12.7L26 9.8v18.7c0 .85-.65 1.5-1.5 1.5h-17c-.85 0-1.5-.65-1.5-1.5v-25z" fill="#101214"/>
  <path d="M19.7 3.5v6.3H26z" fill="#14171A"/>
  <path d="M7 3.5h12.7L26 9.8v18.7c0 .85-.65 1.5-1.5 1.5h-17c-.85 0-1.5-.65-1.5-1.5v-25z" fill="none" stroke="#252A2F" stroke-width="1"/>
  <rect x="6" y="6" width="2.2" height="22" rx="1.1" fill="#7C5CFF"/>
  <rect x="10.8" y="7.2" width="6.7" height="1.7" rx="0.85" fill="#E6EDF3" opacity="0.35"/>
  <rect x="10.8" y="25.5" width="12.5" height="1.2" rx="0.6" fill="#333940" opacity="0.65"/>
  <rect x="10.8" y="15" width="12.4" height="8.4" rx="1.6" fill="none" stroke="#7C5CFF" stroke-width="1.6"/>
  <path d="M13.2 15v-2.3c0-2.2 1.65-3.7 3.8-3.7s3.8 1.5 3.8 3.7V15" fill="none" stroke="#E6EDF3" stroke-width="1.6" stroke-linecap="round"/>
  <rect x="16.1" y="18" width="1.8" height="4" rx="0.9" fill="#7C5CFF"/>
</svg>
