<svg xmlns="http://www.w3.org/2000/svg" viewBox="0 0 32 32" width="32" height="32">
  <path d="M7 3.5h12.7L26 9.8v18.7c0 .85-.65 1.5-1.5 1.5h-17c-.85 0-1.5-.65-1.5-1.5v-25z" fill="#101214"/>
  <path d="M19.7 3.5v6.3H26z" fill="#14171A"/>
  <path d="M7 3.5h12.7L26 9.8v18.7c0 .85-.65 1.5-1.5 1.5h-17c-.85 0-1.5-.65-1.5-1.5v-25z" fill="none" stroke="#252A2F" stroke-width="1"/>
  <rect x="6" y="6" width="2.2" height="22" rx="1.1" fill="#7C5CFF"/>
  <rect x="10.8" y="7.2" width="6.7" height="1.7" rx="0.85" fill="#A78BFA" opacity="0.35"/>
  <rect x="10.8" y="25.5" width="12.5" height="1.2" rx="0.6" fill="#333940" opacity="0.65"/>
  <ellipse cx="16" cy="12.2" rx="6" ry="2.6" fill="none" stroke="#7C5CFF" stroke-width="1.55"/>
  <path d="M10 12.2v8.6c0 1.45 2.7 2.6 6 2.6s6-1.15 6-2.6v-8.6" fill="none" stroke="#7C5CFF" stroke-width="1.55"/>
  <path d="M10 16.5c0 1.45 2.7 2.6 6 2.6s6-1.15 6-2.6" fill="none" stroke="#A78BFA" stroke-width="1.35" opacity="0.95"/>
</svg>
